<?xml version="1.0"?>
<svg xmlns="http://www.w3.org/2000/svg" xmlns:xlink="http://www.w3.org/1999/xlink" xmlns:svgjs="http://svgjs.com/svgjs" version="1.1" width="512" height="512" x="0" y="0" viewBox="0 0 413.6 413.6" style="enable-background:new 0 0 512 512" xml:space="preserve" class=""><g>
<g xmlns="http://www.w3.org/2000/svg">
	<g>
		<g>
			<path d="M206.4,125.8c-44.4,0-80.8,36.4-80.8,80.8c0,44.4,36.4,80.8,80.8,80.8c44.4,0,80.8-36.4,80.8-80.8     C287.2,162.2,250.8,125.8,206.4,125.8z M206.4,269.8c-34.8,0-63.2-28.4-63.2-63.2c0-34.8,28.4-63.2,63.2-63.2     s63.2,28.4,63.2,63.2S241.2,269.8,206.4,269.8z" fill="#ffffff" data-original="#000000" style="" class=""/>
			<path d="M374.4,165h-26c-2.8-10.4-7.2-20-12.4-29.6l18.4-18.4c7.2-7.2,11.2-17.2,10.4-28c-0.4-10.4-5.2-20.4-12.8-28.4     c-8-8-19.2-12.8-30.4-12.8c-10,0-19.2,3.6-26,10.4l-18.4,18.4c-9.2-5.2-19.2-9.2-29.6-12.4V38.6c0-21.2-18.8-38.4-41.6-38.4     c-22.8,0-41.6,17.2-41.6,38.4v26c-10.4,2.8-20,7.2-29.6,12.4l-18-18.4c-6.8-6.8-16-10.4-26-10.4c-11.2,0-22,4.8-30.4,12.8     c-16,16-17.2,41.6-2.4,56.4l18.4,18.4C71.2,145,67.2,155,64,165.4H38.4C17.2,165.4,0,183.8,0,207c0,22.8,17.2,41.6,38.4,41.6h26     c2.8,10.4,7.2,20,12.4,29.6l-18.4,18c-14.8,14.8-14,40,2.4,56.4c8,8,19.2,12.8,30.4,12.8c10,0,19.2-3.6,26-10.4l18.4-18.4     c9.2,5.2,19.2,9.2,29.6,12.4v26c0,21.2,18.8,38.4,41.6,38.4s41.6-17.2,41.6-38.4v-26c10.4-2.8,20-7.2,29.6-12.4l18.4,18.4     c6.8,6.8,16,10.4,26,10.4c11.2,0,22-4.8,30.4-12.8c16-16,17.2-41.6,2.4-56.4l-18.4-18.4c5.2-9.2,9.2-19.2,12.4-29.6h26     c21.2,0,38.4-18.8,38.4-41.6C412.8,183.8,395.6,165,374.4,165z M374.4,230.6h-32.8c-4,0-7.6,2.8-8.4,6.8     c-3.2,13.2-8.4,25.6-15.6,37.2c-2,3.6-1.6,8,1.2,10.8l23.2,23.2c8,8,7.2,22.4-2.4,31.6c-8.8,8.8-24,10-31.6,2.4l-23.2-23.2     c-2.8-2.8-7.2-3.2-10.8-1.2c-11.6,7.2-24,12.4-37.2,15.6c-4,0.8-6.8,4.4-6.8,8.4V375c0,11.6-10.8,20.8-24,20.8s-24-9.2-24-20.8     v-32.8c0-4-2.8-7.6-6.8-8.4c-13.2-3.2-25.6-8.4-37.2-15.6c-1.6-0.8-2.8-1.2-4.4-1.2c-2.4,0-4.4,0.8-6,2.4l-23.2,23.2     c-7.6,7.6-22.8,6.8-31.6-2.4c-9.2-9.2-10.4-23.6-2.4-31.6l23.2-23.2c2.8-2.8,3.2-7.2,1.2-10.8c-7.2-11.6-12.4-24-15.6-37.2     c-0.8-4-4.4-6.8-8.4-6.8H38.4c-11.6,0-20.8-10.8-20.8-24c0-13.2,9.2-24,20.8-24h32.8c4,0,7.6-2.8,8.4-6.8     c3.2-13.2,8.4-25.6,15.6-37.2c2-3.6,1.6-8-1.2-10.8l-23.2-23.2c-8-8-7.2-22.4,2.4-31.6c8.8-8.8,24-10,31.6-2.4L128,93.8     c2.8,2.8,7.2,3.2,10.8,1.2c11.6-7.2,24-12.4,37.2-15.6c4-0.8,6.8-4.4,6.8-8.4V38.6c0-11.6,10.8-20.8,24-20.8s24,9.2,24,20.8v32.8     c0,4,2.8,7.6,6.8,8.4c13.2,3.2,25.6,8.4,37.2,15.6c3.6,2,8,1.6,10.8-1.2L308.8,71c7.6-7.6,22.8-6.8,31.6,2.4     c4.8,4.8,7.2,10.8,7.6,16.8c0.4,6-1.6,11.2-5.6,14.8l-23.2,23.2c-2.8,2.8-3.2,7.2-1.2,10.8c7.2,11.6,12.4,24,15.6,37.2     c0.8,4,4.4,6.8,8.4,6.8h32.8c11.6,0,20.8,10.8,20.8,24C395.2,219.8,386,230.6,374.4,230.6z" fill="#ffffff" data-original="#000000" style="" class=""/>
		</g>
	</g>
</g>
<g xmlns="http://www.w3.org/2000/svg">
</g>
<g xmlns="http://www.w3.org/2000/svg">
</g>
<g xmlns="http://www.w3.org/2000/svg">
</g>
<g xmlns="http://www.w3.org/2000/svg">
</g>
<g xmlns="http://www.w3.org/2000/svg">
</g>
<g xmlns="http://www.w3.org/2000/svg">
</g>
<g xmlns="http://www.w3.org/2000/svg">
</g>
<g xmlns="http://www.w3.org/2000/svg">
</g>
<g xmlns="http://www.w3.org/2000/svg">
</g>
<g xmlns="http://www.w3.org/2000/svg">
</g>
<g xmlns="http://www.w3.org/2000/svg">
</g>
<g xmlns="http://www.w3.org/2000/svg">
</g>
<g xmlns="http://www.w3.org/2000/svg">
</g>
<g xmlns="http://www.w3.org/2000/svg">
</g>
<g xmlns="http://www.w3.org/2000/svg">
</g>
</g></svg>
